<svg xmlns="http://www.w3.org/2000/svg" viewBox="0 0 16 16">
  <defs>
    <linearGradient id="grad16" x1="0%" y1="0%" x2="100%" y2="100%">
      <stop offset="0%" style="stop-color:#0ea5e9"/>
      <stop offset="50%" style="stop-color:#3b82f6"/>
      <stop offset="100%" style="stop-color:#6366f1"/>
    </linearGradient>
  </defs>
  <rect width="16" height="16" rx="3" fill="url(#grad16)"/>
  <rect x="2.2" y="3.5" width="5.6" height="1.3" rx="0.6" fill="white" opacity="0.95"/>
  <rect x="2.2" y="5.8" width="5.6" height="1.3" rx="0.6" fill="white" opacity="0.85"/>
  <rect x="2.2" y="8" width="5.6" height="1.3" rx="0.6" fill="white" opacity="0.72"/>
  <rect x="2.2" y="10.2" width="4.2" height="1.3" rx="0.6" fill="white" opacity="0.58"/>
  <path d="M8.3 4 Q9.9 2.7 11.5 3.5 Q13.1 4.5 12.2 6.7 Q13.8 5.1 14.7 6.1 Q15.7 7.7 14.4 9.9 Q12.8 12.5 10.4 13.1 Q8.6 13.8 8 12 Q7.4 10.2 9 9 Q10.6 7.7 9.9 6.4 Q9 5 8.3 4" 
        stroke="white" stroke-width="1.2" fill="none" stroke-linecap="round" stroke-linejoin="round"/>
  <circle cx="9" cy="9" r="0.7" fill="white"/>
</svg>
