<svg xmlns="http://www.w3.org/2000/svg" viewBox="0 0 32 32">
  <defs>
    <linearGradient id="blueFolder32" x1="0%" y1="0%" x2="100%" y2="100%">
      <stop offset="0%" style="stop-color:#7CB9E8"/>
      <stop offset="100%" style="stop-color:#5B9BD5"/>
    </linearGradient>
    <linearGradient id="tealFolder32" x1="0%" y1="0%" x2="100%" y2="100%">
      <stop offset="0%" style="stop-color:#5DB5A4"/>
      <stop offset="100%" style="stop-color:#48A999"/>
    </linearGradient>
    <linearGradient id="purpleFolder32" x1="0%" y1="0%" x2="100%" y2="100%">
      <stop offset="0%" style="stop-color:#A8A4CE"/>
      <stop offset="100%" style="stop-color:#9590C4"/>
    </linearGradient>
    <linearGradient id="clefGradient32" x1="0%" y1="0%" x2="100%" y2="100%">
      <stop offset="0%" style="stop-color:#5DB5A4"/>
      <stop offset="100%" style="stop-color:#48A999"/>
    </linearGradient>
  </defs>
  
  <!-- Background -->
  <rect width="32" height="32" rx="7" fill="#F5F7F9"/>
  
  <!-- Blue Folder (top) -->
  <path d="M4 8 L4 6 Q4 4 6 4 L10 4 Q11 4 12 6 L13 8 L17 8 Q19 8 19 10 L19 12 Q19 14 17 14 L6 14 Q4 14 4 12 Z" fill="url(#blueFolder32)"/>
  
  <!-- Teal Folder (middle) -->
  <path d="M4 14 L4 12 Q4 10 6 10 L10 10 Q11 10 12 12 L13 14 L17 14 Q19 14 19 16 L19 18 Q19 20 17 20 L6 20 Q4 20 4 18 Z" fill="url(#tealFolder32)"/>
  
  <!-- Purple Folder (bottom) -->
  <path d="M4 20 L4 18 Q4 16 6 16 L10 16 Q11 16 12 18 L13 20 L17 20 Q19 20 19 22 L19 24 Q19 26 17 26 L6 26 Q4 26 4 24 Z" fill="url(#purpleFolder32)"/>
  
  <!-- Treble Clef (simplified) -->
  <g transform="translate(17, 5)">
    <path d="M7 2 
             C8 1 10 1 11 3 
             C12 5 10 8 8 10 
             C7 11 8 12 10 12 
             C12 12 13 10 13 8 
             C13 6 11 6 10 6 
             C9 6 8 7 8 8 
             C8 10 10 11 11 13 
             C12 15 12 17 11 18 
             C10 19 8 20 6 20 
             C4 20 3 19 3 17 
             C3 15 5 14 7 14 
             C9 14 9 15 8 16" 
          stroke="url(#clefGradient32)" stroke-width="1.5" fill="none" stroke-linecap="round"/>
    <circle cx="7" cy="16" r="1" fill="url(#clefGradient32)"/>
  </g>
</svg>
