<svg xmlns="http://www.w3.org/2000/svg" viewBox="0 0 16 16">
  <defs>
    <linearGradient id="blueFolder16" x1="0%" y1="0%" x2="100%" y2="100%">
      <stop offset="0%" style="stop-color:#7CB9E8"/>
      <stop offset="100%" style="stop-color:#5B9BD5"/>
    </linearGradient>
    <linearGradient id="tealFolder16" x1="0%" y1="0%" x2="100%" y2="100%">
      <stop offset="0%" style="stop-color:#5DB5A4"/>
      <stop offset="100%" style="stop-color:#48A999"/>
    </linearGradient>
    <linearGradient id="purpleFolder16" x1="0%" y1="0%" x2="100%" y2="100%">
      <stop offset="0%" style="stop-color:#A8A4CE"/>
      <stop offset="100%" style="stop-color:#9590C4"/>
    </linearGradient>
    <linearGradient id="clefGradient16" x1="0%" y1="0%" x2="100%" y2="100%">
      <stop offset="0%" style="stop-color:#5DB5A4"/>
      <stop offset="100%" style="stop-color:#48A999"/>
    </linearGradient>
  </defs>
  
  <!-- Background -->
  <rect width="16" height="16" rx="3" fill="#F5F7F9"/>
  
  <!-- Blue Folder (top) -->
  <path d="M2 4 L2 3 Q2 2 3 2 L5 2 Q5.5 2 6 3 L6.5 4 L9 4 Q10 4 10 5 L10 6 Q10 7 9 7 L3 7 Q2 7 2 6 Z" fill="url(#blueFolder16)"/>
  
  <!-- Teal Folder (middle) -->
  <path d="M2 7 L2 6 Q2 5 3 5 L5 5 Q5.5 5 6 6 L6.5 7 L9 7 Q10 7 10 8 L10 9 Q10 10 9 10 L3 10 Q2 10 2 9 Z" fill="url(#tealFolder16)"/>
  
  <!-- Purple Folder (bottom) -->
  <path d="M2 10 L2 9 Q2 8 3 8 L5 8 Q5.5 8 6 9 L6.5 10 L9 10 Q10 10 10 11 L10 12 Q10 13 9 13 L3 13 Q2 13 2 12 Z" fill="url(#purpleFolder16)"/>
  
  <!-- Treble Clef (very simplified for small size) -->
  <path d="M11 4 C12 3 13 4 13 5 C13 7 12 8 11 9 C11 10 12 10 13 9 C13 10 13 12 12 13 C11 13 10 13 10 12 C10 11 11 11 11 12" 
        stroke="url(#clefGradient16)" stroke-width="1" fill="none" stroke-linecap="round"/>
</svg>
