<svg xmlns="http://www.w3.org/2000/svg" viewBox="0 0 32 32">
  <defs>
    <linearGradient id="grad32" x1="0%" y1="0%" x2="100%" y2="100%">
      <stop offset="0%" style="stop-color:#0ea5e9"/>
      <stop offset="50%" style="stop-color:#3b82f6"/>
      <stop offset="100%" style="stop-color:#6366f1"/>
    </linearGradient>
  </defs>
  <rect width="32" height="32" rx="6" fill="url(#grad32)"/>
  <rect x="4.5" y="7" width="11.2" height="2.6" rx="1.3" fill="white" opacity="0.95"/>
  <rect x="4.5" y="11.5" width="11.2" height="2.6" rx="1.3" fill="white" opacity="0.85"/>
  <rect x="4.5" y="16" width="11.2" height="2.6" rx="1.3" fill="white" opacity="0.72"/>
  <rect x="4.5" y="20.5" width="8.4" height="2.6" rx="1.3" fill="white" opacity="0.58"/>
  <path d="M16.6 8 Q19.8 5.4 23 7 Q26.2 9 24.4 13.4 Q27.6 10.2 29.4 12.2 Q31.4 15.4 28.8 19.8 Q25.6 25 20.8 26.2 Q17.2 27.6 16 24 Q14.8 20.4 18 18 Q21.2 15.4 19.8 12.8 Q18 9.8 16.6 8" 
        stroke="white" stroke-width="2" fill="none" stroke-linecap="round" stroke-linejoin="round"/>
  <circle cx="18" cy="18" r="1.4" fill="white"/>
</svg>
